<?xml version="1.0" standalone="no"?>
<!DOCTYPE svg PUBLIC "-//W3C//DTD SVG 20010904//EN"
 "http://www.w3.org/TR/2001/REC-SVG-20010904/DTD/svg10.dtd">
<svg version="1.0" xmlns="http://www.w3.org/2000/svg"
 width="240.000000pt" height="240.000000pt" viewBox="0 0 240.000000 240.000000"
 preserveAspectRatio="xMidYMid meet">

<g transform="translate(0.000000,240.000000) scale(0.100000,-0.100000)"
fill="#000000" stroke="none">
<path d="M1180 2355 c0 -8 9 -15 20 -15 11 0 20 7 20 15 0 8 -9 15 -20 15 -11
0 -20 -7 -20 -15z"/>
<path d="M301 2319 c-72 -21 -158 -96 -199 -174 l-27 -50 0 -880 0 -880 27
-56 c36 -72 105 -141 176 -176 l57 -28 865 0 865 0 48 22 c67 31 152 115 184
182 l28 56 0 860 0 860 -29 62 c-34 73 -113 153 -183 186 l-48 22 -865 2
c-543 1 -878 -2 -899 -8z m1798 -114 c56 -31 106 -88 128 -148 15 -42 18
-1644 3 -1699 -18 -63 -70 -129 -130 -162 l-55 -31 -845 0 -845 0 -52 27 c-56
30 -91 69 -122 138 -20 44 -21 62 -21 885 0 943 -4 881 75 958 71 69 28 66
965 64 l845 -2 54 -30z"/>
<path d="M1267 2040 c-14 -11 -51 -32 -82 -46 -71 -33 -139 -30 -345 15 -188
42 -313 50 -376 26 -136 -52 -206 -203 -159 -346 25 -73 100 -148 174 -172 89
-28 163 -19 176 23 8 26 -7 46 -56 70 -49 26 -67 73 -45 123 28 69 122 85 166
29 18 -23 20 -38 18 -140 l-3 -115 -30 -10 c-70 -22 -135 -120 -135 -203 0
-58 21 -63 123 -30 l47 15 0 -29 c0 -24 -5 -30 -31 -35 -72 -16 -138 -110
-139 -198 0 -40 4 -49 24 -58 18 -9 31 -7 64 10 23 12 51 21 62 21 19 0 21 -5
18 -70 l-3 -71 -69 -24 c-149 -52 -266 -160 -337 -308 -31 -67 -36 -96 -17
-115 21 -21 44 -13 105 32 32 24 90 56 128 72 62 25 82 28 175 28 126 0 190
-20 292 -90 37 -26 73 -44 81 -41 22 8 224 186 231 203 12 32 -45 99 -136 158
l-28 18 0 179 0 179 135 0 135 0 0 -218 c0 -247 10 -307 63 -380 70 -97 208
-160 327 -149 156 14 270 127 296 294 14 94 -68 132 -91 41 -16 -64 -92 -92
-149 -55 l-26 17 0 536 0 536 90 95 c87 91 103 120 78 140 -7 6 -65 13 -128
16 -63 4 -152 15 -198 27 -46 11 -87 20 -92 20 -10 0 -183 -204 -214 -252 -21
-32 -9 -65 26 -70 22 -3 23 -7 23 -113 l0 -110 -137 -3 -138 -3 0 117 0 116
88 122 c49 66 91 129 95 139 4 11 -1 25 -13 37 -25 25 -31 25 -63 0z m-507
-110 c250 -53 304 -61 343 -55 43 6 44 10 -11 -70 l-33 -49 3 -159 c3 -143 5
-160 22 -173 16 -11 62 -14 211 -14 176 0 193 2 209 19 15 17 17 42 15 215
l-2 195 48 58 c27 32 50 60 51 61 2 2 38 -3 81 -12 43 -9 98 -19 122 -23 l43
-8 -56 -63 -56 -63 0 -547 c0 -617 -3 -590 77 -646 33 -23 54 -30 92 -30 48
-1 49 -2 33 -20 -46 -50 -154 -77 -229 -57 -63 17 -134 70 -168 125 l-30 49
-3 271 c-2 167 -8 276 -14 284 -15 17 -409 17 -426 0 -9 -9 -12 -78 -12 -250
l0 -237 53 -35 c28 -19 62 -43 75 -53 l24 -19 -66 -58 -66 -58 -48 31 c-138
88 -322 115 -480 68 l-84 -25 48 49 c54 55 133 100 219 124 33 10 66 22 73 27
8 8 12 50 12 148 0 164 -1 165 -90 157 -33 -3 -60 -1 -60 4 0 16 48 41 89 46
23 3 45 11 51 18 6 8 10 51 8 106 -3 85 -5 94 -25 105 -15 7 -41 8 -70 3 -27
-4 -50 -5 -53 -2 -9 9 46 43 80 49 72 14 70 7 70 187 0 158 -1 164 -25 197
-90 122 -261 112 -331 -21 -11 -21 -18 -56 -18 -91 -1 -32 -4 -58 -8 -58 -15
0 -57 67 -67 108 -20 75 20 167 89 203 49 27 121 24 290 -11z"/>
<path d="M2016 1724 c-14 -13 -16 -63 -16 -388 0 -276 3 -375 12 -384 18 -18
56 -14 68 7 6 13 10 152 10 385 0 318 -2 367 -16 380 -20 20 -38 20 -58 0z"/>
<path d="M299 1344 c-20 -24 -25 -338 -6 -374 17 -33 51 -37 71 -8 13 18 16
52 16 183 0 170 -8 208 -46 213 -11 2 -27 -5 -35 -14z"/>
<path d="M660 383 c-76 -13 -131 -35 -139 -56 -18 -49 19 -71 88 -50 55 16
163 17 231 1 44 -10 53 -9 67 4 22 23 10 63 -24 77 -62 25 -157 35 -223 24z"/>
<path d="M6 1241 c-4 -5 -2 -12 3 -15 5 -4 12 -2 15 3 4 5 2 12 -3 15 -5 4
-12 2 -15 -3z"/>
<path d="M2376 1241 c-4 -5 -2 -12 3 -15 5 -4 12 -2 15 3 4 5 2 12 -3 15 -5 4
-12 2 -15 -3z"/>
</g>
</svg>
