<?xml version="1.0" encoding="UTF-8"?>
<svg xmlns="http://www.w3.org/2000/svg" xmlns:xlink="http://www.w3.org/1999/xlink" width="240px" height="240px" viewBox="0 0 240 240" version="1.1">
<defs>
<clipPath id="clip1">
  <path d="M 6.863281 6.863281 L 233.136719 6.863281 L 233.136719 233.136719 L 6.863281 233.136719 Z M 6.863281 6.863281 "/>
</clipPath>
</defs>
<g id="surface1">
<g clip-path="url(#clip1)" clip-rule="nonzero">
<path style=" stroke:none;fill-rule:nonzero;fill:rgb(100%,100%,100%);fill-opacity:1;" d="M 209.253906 162.488281 C 207.492188 161.484375 205.230469 161.734375 203.972656 163.242188 C 202.464844 164.753906 202.714844 166.261719 202.214844 168.019531 C 199.949219 176.316406 187.882812 177.070312 184.613281 169.027344 L 184.613281 63.683594 L 201.710938 46.335938 C 203.722656 44.324219 203.46875 41.054688 201.207031 39.546875 C 199.449219 38.289062 197.6875 38.792969 195.925781 39.042969 C 192.15625 39.546875 188.132812 39.042969 184.363281 38.792969 C 179.335938 38.289062 174.558594 37.285156 169.78125 36.277344 C 166.261719 35.523438 160.226562 32.507812 157.460938 35.777344 L 138.351562 58.90625 C 136.089844 61.921875 138.101562 66.195312 141.875 66.195312 L 143.632812 66.195312 L 143.632812 88.824219 L 115.976562 88.824219 L 115.976562 65.695312 L 133.828125 41.308594 C 136.34375 37.785156 132.570312 32.757812 128.546875 34.519531 C 127.292969 35.019531 126.035156 36.277344 125.027344 37.285156 C 119.75 41.308594 113.464844 43.820312 106.675781 43.570312 C 101.898438 43.316406 97.371094 41.808594 92.847656 40.804688 C 88.574219 39.796875 84.046875 39.042969 79.773438 38.039062 C 74.492188 37.03125 69.214844 36.027344 63.683594 35.273438 C 51.613281 32.757812 41.308594 36.277344 34.519531 45.078125 C 28.234375 53.125 26.976562 64.4375 31.5 73.992188 C 35.777344 83.042969 45.078125 89.328125 55.386719 89.832031 C 57.898438 89.832031 61.921875 90.082031 64.1875 88.320312 C 66.195312 86.8125 66.449219 83.796875 64.941406 82.035156 C 62.675781 79.773438 59.660156 79.773438 57.648438 77.761719 C 55.890625 76.253906 54.632812 73.992188 54.378906 71.476562 C 53.878906 66.449219 57.144531 61.421875 62.175781 60.414062 C 67.453125 59.15625 72.734375 62.175781 74.242188 67.203125 L 74.242188 89.074219 C 64.6875 90.835938 58.402344 98.378906 57.144531 107.933594 C 56.894531 110.195312 56.390625 112.960938 58.152344 114.972656 C 59.660156 116.480469 61.921875 116.730469 63.683594 115.726562 C 66.953125 113.964844 70.472656 112.707031 73.992188 112.207031 L 73.992188 117.484375 C 64.4375 119.246094 58.152344 126.789062 56.894531 136.34375 C 56.644531 138.605469 56.140625 141.371094 57.898438 143.382812 C 59.410156 144.890625 61.671875 145.140625 63.429688 144.136719 C 66.699219 142.375 70.21875 141.117188 73.738281 140.617188 L 73.738281 155.199219 C 67.957031 156.457031 62.675781 158.464844 57.398438 161.484375 C 48.09375 166.761719 40.300781 174.558594 35.019531 183.859375 C 33.511719 186.375 32.507812 188.886719 31.5 191.402344 C 30.746094 193.664062 29.238281 196.179688 30.496094 198.691406 C 34.015625 205.230469 41.054688 196.429688 44.324219 194.417969 C 54.378906 187.628906 66.699219 184.613281 78.769531 186.375 C 84.800781 187.128906 90.835938 189.140625 96.117188 192.15625 C 98.882812 193.664062 101.648438 195.675781 103.910156 197.6875 C 105.921875 199.449219 108.6875 200.957031 111.199219 198.691406 L 130.558594 182.101562 C 135.839844 177.824219 130.054688 172.796875 127.292969 170.28125 C 123.769531 167.015625 119.75 163.996094 115.726562 161.484375 L 115.726562 126.035156 L 143.382812 126.035156 L 143.382812 168.773438 C 143.382812 187.378906 162.238281 201.207031 179.335938 201.207031 C 195.171875 201.207031 209 189.390625 211.265625 173.804688 C 211.765625 170.28125 212.773438 164.5 209.253906 162.488281 M 168.773438 189.894531 C 160.226562 186.375 152.433594 178.578125 152.433594 168.773438 L 152.433594 121.507812 C 152.433594 118.996094 150.421875 116.984375 147.90625 116.984375 L 111.199219 116.984375 C 108.6875 116.984375 106.675781 118.996094 106.675781 121.507812 L 106.675781 164.25 C 106.675781 168.019531 111.199219 169.277344 113.714844 171.039062 C 116.730469 173.046875 119.496094 175.3125 122.011719 177.824219 L 108.6875 189.140625 C 91.589844 175.5625 67.203125 172.796875 47.339844 182.351562 C 51.867188 176.316406 57.898438 171.289062 64.6875 168.019531 C 68.207031 166.261719 71.980469 165.003906 75.75 163.996094 C 79.019531 163.242188 83.292969 162.992188 83.042969 158.71875 L 83.042969 135.585938 C 83.292969 128.046875 71.226562 131.3125 67.203125 132.570312 C 69.214844 128.296875 73.738281 126.035156 78.265625 126.035156 C 81.03125 126.285156 83.042969 124.023438 83.042969 121.257812 L 83.042969 107.429688 C 83.292969 99.886719 71.226562 103.15625 67.203125 104.414062 C 68.460938 101.648438 70.722656 99.636719 73.738281 98.628906 C 75.246094 98.125 76.757812 98.125 78.515625 97.875 C 81.03125 98.125 83.292969 95.863281 83.292969 93.351562 L 83.292969 66.699219 C 83.292969 61.921875 78.769531 56.644531 74.996094 54.378906 C 70.472656 51.363281 64.6875 50.609375 59.660156 51.867188 C 48.347656 54.882812 42.3125 67.707031 46.839844 78.265625 C 38.289062 73.238281 34.769531 62.175781 39.546875 53.375 C 41.558594 49.605469 44.828125 46.585938 48.847656 44.828125 C 53.125 43.066406 57.144531 43.570312 61.671875 44.324219 C 68.460938 45.328125 75.246094 46.585938 81.785156 48.09375 C 92.34375 50.105469 103.65625 54.632812 114.46875 52.117188 L 107.179688 62.175781 C 106.675781 62.929688 106.421875 63.933594 106.421875 64.941406 L 106.421875 94.105469 C 106.421875 96.617188 108.433594 98.628906 110.949219 98.628906 L 147.65625 98.628906 C 150.167969 98.628906 152.179688 96.617188 152.179688 94.105469 L 152.179688 61.921875 C 152.179688 60.414062 151.425781 59.15625 150.167969 58.152344 L 161.988281 43.820312 C 167.015625 45.078125 177.574219 47.59375 186.875 48.09375 L 176.570312 58.65625 C 175.8125 59.660156 175.3125 60.664062 175.3125 61.921875 L 175.3125 169.78125 C 175.3125 174.054688 179.585938 178.578125 182.855469 180.84375 C 187.128906 183.609375 192.15625 184.363281 197.183594 183.355469 C 190.394531 191.90625 178.832031 193.917969 168.773438 189.894531 M 33.011719 146.148438 C 30.496094 146.148438 28.484375 144.136719 28.484375 141.621094 L 28.484375 108.6875 C 28.484375 106.171875 30.496094 104.160156 33.011719 104.160156 C 35.523438 104.160156 37.535156 106.171875 37.535156 108.6875 L 37.535156 141.621094 C 37.535156 144.136719 35.523438 146.148438 33.011719 146.148438 M 92.09375 210.507812 C 91.085938 212.773438 88.574219 214.03125 86.308594 213.023438 C 77.257812 209.503906 66.953125 209.503906 57.898438 213.273438 C 57.398438 213.527344 56.644531 213.527344 56.140625 213.527344 C 54.378906 213.527344 52.621094 212.519531 51.867188 210.761719 C 50.859375 208.5 52.117188 205.734375 54.378906 204.726562 C 65.441406 200.203125 78.265625 199.949219 89.328125 204.476562 C 91.839844 205.734375 93.097656 208.246094 92.09375 210.507812 M 204.476562 66.195312 C 206.988281 66.195312 209 68.207031 209 70.722656 L 209 141.621094 C 209 144.136719 206.988281 146.148438 204.476562 146.148438 C 201.960938 146.148438 199.949219 144.136719 199.949219 141.621094 L 199.949219 70.722656 C 199.949219 68.207031 201.960938 66.195312 204.476562 66.195312 M 196.933594 6.863281 L 39.796875 6.863281 C 21.695312 6.863281 6.863281 21.695312 6.863281 39.796875 L 6.863281 197.183594 C 6.863281 216.796875 23.203125 233.136719 43.066406 233.136719 L 197.183594 233.136719 C 216.796875 233.136719 233.136719 216.796875 233.136719 196.933594 L 233.136719 43.066406 C 233.136719 23.203125 216.796875 6.863281 196.933594 6.863281 M 224.085938 196.933594 C 224.085938 211.765625 211.765625 224.085938 196.933594 224.085938 L 43.066406 224.085938 C 28.234375 224.085938 15.914062 211.765625 15.914062 196.933594 L 15.914062 39.796875 C 15.914062 26.726562 26.726562 15.914062 39.796875 15.914062 L 197.183594 15.914062 C 212.019531 15.914062 224.335938 28.234375 224.335938 43.066406 Z M 224.085938 196.933594 "/>
</g>
<path style=" stroke:none;fill-rule:nonzero;fill:rgb(100%,100%,100%);fill-opacity:1;" d="M 118.304688 6.460938 L 118.285156 2.957031 L 121.789062 2.9375 L 121.808594 6.441406 Z M 118.304688 6.460938 "/>
<path style=" stroke:none;fill-rule:nonzero;fill:rgb(100%,100%,100%);fill-opacity:1;" d="M 0 116.417969 C 0 115.679688 0.597656 115.078125 1.339844 115.078125 C 2.078125 115.078125 2.675781 115.679688 2.675781 116.417969 C 2.675781 117.15625 2.078125 117.757812 1.339844 117.757812 C 0.597656 117.757812 0 117.15625 0 116.417969 Z M 0 116.417969 "/>
<path style=" stroke:none;fill-rule:nonzero;fill:rgb(100%,100%,100%);fill-opacity:1;" d="M 237.324219 116.417969 C 237.324219 115.679688 237.921875 115.078125 238.660156 115.078125 C 239.402344 115.078125 240 115.679688 240 116.417969 C 240 117.15625 239.402344 117.757812 238.660156 117.757812 C 237.921875 117.757812 237.324219 117.15625 237.324219 116.417969 Z M 237.324219 116.417969 "/>
<path style=" stroke:none;fill-rule:nonzero;fill:rgb(78.431374%,78.431374%,78.431374%);fill-opacity:1;" d="M 119.769531 237.0625 L 119.769531 236.601562 L 120.230469 236.601562 L 120.230469 237.0625 Z M 119.769531 237.0625 "/>
</g>
</svg>
